<?xml version="1.0" standalone="no"?>
<!DOCTYPE svg PUBLIC "-//W3C//DTD SVG 20010904//EN"
 "http://www.w3.org/TR/2001/REC-SVG-20010904/DTD/svg10.dtd">
<svg version="1.0" xmlns="http://www.w3.org/2000/svg"
 width="80.000000pt" height="80.000000pt" viewBox="0 0 80.000000 80.000000"
 preserveAspectRatio="xMidYMid meet">
<metadata>
Created by potrace 1.14, written by Peter Selinger 2001-2017
</metadata>
<g transform="translate(0.000000,80.000000) scale(0.100000,-0.100000)"
fill="#000000" stroke="none">
<path d="M263 714 c-58 -21 -139 -96 -170 -158 -50 -99 -41 -233 23 -323 40
-57 134 -123 174 -123 54 0 60 17 60 179 0 101 -4 151 -12 159 -7 7 -40 12
-80 12 l-68 0 0 -40 0 -40 40 0 40 0 0 -91 0 -92 -32 25 c-59 45 -91 101 -96
168 -6 80 17 140 77 199 l46 46 5 -60 5 -60 37 -3 37 -3 3 73 c3 67 5 73 25
76 21 3 22 -1 25 -70 l3 -73 38 -3 37 -3 0 55 c0 68 13 72 64 20 53 -54 71
-99 71 -174 -1 -70 -18 -114 -62 -162 -25 -26 -26 -37 -8 -80 10 -26 -12 -22
-40 7 -23 22 -25 32 -25 115 l0 90 46 0 45 0 -3 38 -3 37 -72 3 c-95 4 -95 3
-91 -185 4 -168 -3 -158 119 -198 124 -42 147 -28 114 69 l-18 51 27 39 c104
154 50 371 -116 461 -45 25 -66 29 -138 32 -58 2 -98 -2 -127 -13z"/>
</g>
</svg>
